<svg width="56" height="58" viewBox="0 0 56 58" fill="none" xmlns="http://www.w3.org/2000/svg">
<path d="M34.3004 39.5649C41.3004 39.5649 47.0754 33.7899 47.0754 26.7899C47.0754 19.7899 41.3004 14.0149 34.3004 14.0149C27.3004 14.0149 21.5254 19.7899 21.5254 26.7899C21.5254 33.7899 27.1254 39.5649 34.3004 39.5649Z" fill="#FFB709"/>
<path d="M25.7247 21.8899C26.5997 20.8399 26.9497 19.6149 26.9497 18.2149C26.9497 15.4149 25.0247 12.9649 22.3997 12.4399C22.5747 11.7399 22.7497 11.0399 22.7497 10.3399C22.7497 6.13989 19.2497 2.63989 14.8747 2.63989C10.6747 2.63989 7.17471 6.13989 7.17471 10.3399C7.17471 11.0399 7.34971 11.5649 7.34971 12.2649C4.89971 12.9649 2.97471 15.4149 2.97471 18.2149C2.97471 19.6149 3.49971 20.8399 4.19971 21.8899C2.79971 23.2899 1.39971 25.2149 1.74971 27.4899C2.09971 29.5899 11.0247 50.9399 11.0247 50.9399H18.7247C18.7247 50.9399 27.6497 29.5899 27.9997 27.4899C28.5247 25.2149 27.1247 23.2899 25.7247 21.8899Z" fill="#634C9F"/>
<path d="M14.875 11.3899V50.4149" stroke="#1D1D1B" stroke-width="1.5" stroke-miterlimit="10" stroke-linecap="round" stroke-linejoin="round"/>
<path d="M8.22461 28.365L14.8746 35.89" stroke="#1D1D1B" stroke-width="1.5" stroke-miterlimit="10" stroke-linecap="round" stroke-linejoin="round"/>
<path d="M21.7 28.365L14.875 35.89" stroke="#1D1D1B" stroke-width="1.5" stroke-miterlimit="10" stroke-linecap="round" stroke-linejoin="round"/>
<path d="M8.22461 17.34L15.0496 25.04" stroke="#1D1D1B" stroke-width="1.5" stroke-miterlimit="10" stroke-linecap="round" stroke-linejoin="round"/>
<path d="M21.7 17.34L14.875 25.04" stroke="#1D1D1B" stroke-width="1.5" stroke-miterlimit="10" stroke-linecap="round" stroke-linejoin="round"/>
<path d="M42.3496 38.8649C42.6996 40.0899 42.8746 41.3149 43.0496 42.3649H54.2496L49.6996 28.5399L40.5996 35.3649C41.2996 36.4149 41.8246 37.6399 42.3496 38.8649Z" fill="#634C9F"/>
<path d="M2.45039 51.9899C1.75039 50.0649 2.45039 47.9649 3.85039 47.0899L29.9254 31.6899C34.4754 29.4149 40.2504 32.7399 42.3504 38.8649C44.2754 44.9899 41.6504 51.1149 36.5754 51.9899L6.4754 55.1399C4.9004 55.3149 3.15039 53.9149 2.45039 51.9899Z" stroke="#1D1D1B" stroke-width="1.5" stroke-miterlimit="10" stroke-linecap="round" stroke-linejoin="round"/>
<path d="M29.5762 32.0399C29.7512 32.3899 33.4262 44.4649 33.4262 44.4649" stroke="#1D1D1B" stroke-width="1.5" stroke-miterlimit="10" stroke-linecap="round" stroke-linejoin="round"/>
<path d="M25.375 45.865C25.55 46.215 27.65 52.865 27.65 52.865" stroke="#1D1D1B" stroke-width="1.5" stroke-miterlimit="10" stroke-linecap="round" stroke-linejoin="round"/>
<path d="M17.8496 39.215C18.0246 39.565 20.1246 46.215 20.1246 46.215" stroke="#1D1D1B" stroke-width="1.5" stroke-miterlimit="10" stroke-linecap="round" stroke-linejoin="round"/>
<path d="M7.875 49.5399L9.45 54.6149" stroke="#1D1D1B" stroke-width="1.5" stroke-miterlimit="10" stroke-linecap="round" stroke-linejoin="round"/>
<path d="M38.8512 8.93994L36.5762 17.5149" stroke="#1D1D1B" stroke-width="1.5" stroke-miterlimit="10" stroke-linecap="round" stroke-linejoin="round"/>
<path d="M39.8988 17.3399C39.3738 17.6899 38.6738 17.6899 37.9738 17.6899C36.5738 17.6899 35.1738 16.9899 34.2988 15.9399" stroke="#1D1D1B" stroke-width="1.5" stroke-miterlimit="10" stroke-linecap="round" stroke-linejoin="round"/>
</svg>
