<svg width="58" height="58" viewBox="0 0 58 58" fill="none" xmlns="http://www.w3.org/2000/svg">
<mask id="mask0_1_7410" style="mask-type:luminance" maskUnits="userSpaceOnUse" x="1" y="0" width="56" height="57">
<path d="M57 0.889893H1V56.8899H57V0.889893Z" fill="white"/>
</mask>
<g mask="url(#mask0_1_7410)">
<path d="M57 30.6717L48.3455 36.9081L51.6545 46.9626L40.9636 46.8353L37.6545 56.8899L29 50.6535L20.3455 56.8899L17.0364 46.8353L6.34545 46.9626L9.65455 36.9081L1 30.6717L9.65455 24.5626L6.34545 14.5081H17.0364L20.3455 4.45357L29 10.5627L37.6545 4.32629L40.9636 14.3808H51.6545L48.3455 24.4353L57 30.6717Z" fill="#634C9F"/>
<path d="M43.6351 18.8354C47.1987 16.6717 50.5078 13.8717 52.7987 10.5627C53.9442 8.90814 54.9624 6.99905 54.7078 5.08996C54.4533 3.30814 53.1805 1.78087 51.3987 1.52632C50.5078 1.27178 49.6169 1.39905 48.8533 1.6536C48.0896 1.78087 47.326 2.03541 46.8169 2.41723C45.2896 3.43541 44.6533 5.47178 44.1442 7.25359C43.2533 10.5627 42.4896 13.6172 41.9805 16.9263" stroke="#1D1D1B" stroke-width="0.5714" stroke-miterlimit="10" stroke-linecap="round" stroke-linejoin="round"/>
<path d="M39.4366 45.9445L25.5638 45.1808L19.582 33.0899L36.1275 8.39905L55.982 21.2536L39.4366 45.9445Z" fill="#FFB709"/>
<path d="M43.6367 18.8354C47.2004 16.6717 50.5094 13.8717 52.8004 10.5627C53.9458 8.90814 54.964 6.99905 54.7094 5.08996C54.4549 3.30814 53.1822 1.78087 51.4004 1.52632C50.5094 1.27178 49.6185 1.39905 48.8549 1.6536C48.0913 1.78087 47.3276 2.03541 46.8185 2.41723C45.2913 3.43541 44.6549 5.47178 44.1458 7.25359C43.8913 7.88996 43.764 8.39905 43.6367 9.16268" stroke="#1D1D1B" stroke-width="0.5714" stroke-miterlimit="10" stroke-linecap="round" stroke-linejoin="round"/>
<path d="M43.5078 27.3627L27.9805 29.7809L28.8715 30.7991L44.3987 28.3809L43.5078 27.3627Z" fill="#1D1D1B"/>
<path d="M38.5453 31.69C38.2907 31.5627 38.1635 31.5627 38.0362 31.5627C37.5271 31.4355 37.018 31.4355 36.5089 31.5627C35.9998 31.8173 35.3635 32.0718 34.8544 32.4536C34.3453 32.9627 33.9635 33.4718 33.7089 33.9809C33.4544 34.49 33.4544 34.9991 33.5816 35.5082C33.7089 36.0173 33.9635 36.5264 34.3453 36.9082L34.4726 37.0355C35.1089 37.6718 35.7453 37.9264 36.5089 37.9264C37.2726 37.9264 38.1635 37.5446 38.9271 36.9082C39.6907 36.1446 40.0726 35.3809 40.1998 34.6173C40.3271 33.8536 39.9453 33.09 39.4362 32.4536C39.1816 32.0718 38.7998 31.9446 38.5453 31.69ZM35.618 36.7809C35.4907 36.6536 35.2362 36.5264 35.1089 36.3991C34.7271 36.0173 34.5998 35.5082 34.7271 34.8718C34.8544 34.3627 35.1089 33.8536 35.7453 33.2173C36.3816 32.7082 36.8907 32.3264 37.3998 32.3264C37.5271 32.3264 37.5271 32.3264 37.6544 32.3264C38.1635 32.3264 38.418 32.4536 38.7998 32.8355C39.1816 33.2173 39.3089 33.7264 39.1816 34.3627C39.0544 34.8718 38.6726 35.3809 38.1635 35.89C37.6544 36.3991 37.018 36.7809 36.5089 36.7809C36.2544 36.9082 35.8726 36.9082 35.618 36.7809Z" fill="#1D1D1B"/>
<path d="M32.945 25.9627C33.5814 26.5991 34.2178 26.8536 34.9814 26.8536C34.9814 26.8536 34.9814 26.8536 35.1087 26.8536C35.8723 26.8536 36.7632 26.4718 37.5268 25.8354C38.2905 25.0718 38.6723 24.3082 38.7996 23.5445C38.9268 22.7809 38.545 22.0173 38.0359 21.3809C37.7814 20.9991 37.3996 20.8718 37.145 20.7445C36.7632 20.49 36.3814 20.49 35.8723 20.49C35.1087 20.49 34.2178 20.8718 33.4541 21.5082C32.6905 22.2718 32.3087 23.0354 32.1814 23.7991C31.9268 24.5627 32.1814 25.1991 32.945 25.9627ZM35.9996 21.3809C36.3814 21.3809 36.7632 21.6354 37.2723 21.89C37.6541 22.2718 37.7814 22.7809 37.6541 23.4173C37.5268 23.9264 37.145 24.4354 36.6359 25.0718C35.9996 25.5809 35.4905 25.9627 34.9814 25.9627C34.5996 26.09 34.345 25.9627 34.0905 25.8354C33.8359 25.7082 33.7087 25.5809 33.5814 25.4536C33.1996 25.0718 33.0723 24.5627 33.1996 23.9264C33.3268 23.4173 33.7087 22.9082 34.2178 22.2718C34.8541 21.7627 35.3632 21.3809 35.8723 21.3809C35.745 21.3809 35.8723 21.3809 35.9996 21.3809Z" fill="#1D1D1B"/>
</g>
</svg>
