<svg width="20" height="24" viewBox="0 0 20 24" fill="none" xmlns="http://www.w3.org/2000/svg">
<path d="M9.70216 0.4042C7.98616 0.4042 6.39149 0.837534 4.91816 1.7042C3.47949 2.5362 2.33549 3.67153 1.48616 5.1102C0.602156 6.60087 0.160156 8.21287 0.160156 9.9462C0.160156 11.8009 0.792823 13.7682 2.05816 15.8482C3.01149 17.4255 4.28549 19.0202 5.88016 20.6322C6.74682 21.4989 7.73482 22.4002 8.84416 23.3362L9.15616 23.5962C9.20816 23.6482 9.28616 23.6959 9.39016 23.7392C9.49416 23.7825 9.60249 23.8042 9.71516 23.8042C9.82782 23.8042 9.92316 23.7912 10.0012 23.7652C10.0792 23.7392 10.1615 23.6829 10.2482 23.5962L10.5602 23.3362C11.6695 22.4002 12.6575 21.4989 13.5242 20.6322C15.1188 19.0202 16.3928 17.4255 17.3462 15.8482C18.6115 13.7682 19.2442 11.8009 19.2442 9.9462C19.2442 8.21287 18.8022 6.60087 17.9182 5.1102C17.0688 3.67153 15.9248 2.5362 14.4862 1.7042C13.0128 0.837534 11.4182 0.4042 9.70216 0.4042ZM9.70216 21.7502C8.78349 21.0049 7.84749 20.1469 6.89416 19.1762C5.49016 17.7029 4.37216 16.2642 3.54016 14.8602C2.44816 13.0402 1.90216 11.3675 1.90216 9.8422C1.90216 8.42087 2.25749 7.10353 2.96816 5.8902C3.64416 4.71153 4.57149 3.7842 5.75016 3.1082C6.96349 2.39753 8.28082 2.0422 9.70216 2.0422C11.1235 2.0422 12.4408 2.4062 13.6542 3.1342C14.8328 3.82753 15.7688 4.7722 16.4622 5.9682C17.1555 7.1642 17.5022 8.45553 17.5022 9.8422C17.5022 11.4195 16.9562 13.1182 15.8642 14.9382C15.0322 16.3249 13.9142 17.7462 12.5102 19.2022C11.5915 20.1382 10.6555 20.9875 9.70216 21.7502ZM9.70216 5.8122C8.95682 5.8122 8.27216 5.99853 7.64816 6.3712C7.02416 6.74387 6.52582 7.24653 6.15316 7.8792C5.78049 8.51187 5.59416 9.20087 5.59416 9.9462C5.59416 10.6915 5.78049 11.3805 6.15316 12.0132C6.52582 12.6459 7.02416 13.1442 7.64816 13.5082C8.27216 13.8722 8.95682 14.0542 9.70216 14.0542C10.4475 14.0542 11.1365 13.8679 11.7692 13.4952C12.4018 13.1225 12.9002 12.6242 13.2642 12.0002C13.6282 11.3762 13.8102 10.6915 13.8102 9.9462C13.8102 9.20087 13.6282 8.51187 13.2642 7.8792C12.9002 7.24653 12.4018 6.74387 11.7692 6.3712C11.1365 5.99853 10.4475 5.8122 9.70216 5.8122ZM9.70216 12.3122C9.04349 12.3122 8.48016 12.0782 8.01216 11.6102C7.54416 11.1422 7.31016 10.5875 7.31016 9.9462C7.31016 9.51287 7.41849 9.1142 7.63516 8.7502C7.85182 8.3862 8.14216 8.09587 8.50616 7.8792C8.87016 7.66253 9.26882 7.5542 9.70216 7.5542C10.1355 7.5542 10.5342 7.66253 10.8982 7.8792C11.2622 8.09587 11.5525 8.3862 11.7692 8.7502C11.9858 9.1142 12.0942 9.51287 12.0942 9.9462C12.0942 10.5875 11.8602 11.1422 11.3922 11.6102C10.9242 12.0782 10.3608 12.3122 9.70216 12.3122Z" fill="#030712"/>
</svg>
