<svg width="19" height="15" viewBox="0 0 19 15" fill="none" xmlns="http://www.w3.org/2000/svg">
<path d="M15.8202 0.00986385H2.50016C2.08682 0.00986385 1.70016 0.109863 1.34016 0.309864C0.980156 0.509864 0.69349 0.783196 0.480156 1.12986C0.266823 1.47653 0.160156 1.85653 0.160156 2.26986V12.2699C0.160156 12.6832 0.26349 13.0699 0.470156 13.4299C0.676823 13.7899 0.956823 14.0765 1.31016 14.2899C1.66349 14.5032 2.06016 14.6099 2.50016 14.6099H15.8202C16.2335 14.6099 16.6202 14.5065 16.9802 14.2999C17.3402 14.0932 17.6268 13.8132 17.8402 13.4599C18.0535 13.1065 18.1602 12.7099 18.1602 12.2699V2.26986C18.1602 1.85653 18.0535 1.47653 17.8402 1.12986C17.6268 0.783196 17.3402 0.509864 16.9802 0.309864C16.6202 0.109863 16.2335 0.00986385 15.8202 0.00986385ZM2.50016 1.26986H15.8202C16.1135 1.26986 16.3535 1.36986 16.5402 1.56986C16.7268 1.76986 16.8202 2.0032 16.8202 2.26986V2.76986L9.66016 7.34986C9.48682 7.42986 9.30682 7.46986 9.12016 7.46986C8.93349 7.46986 8.75349 7.42986 8.58016 7.34986L1.50016 2.76986V2.26986C1.50016 1.97653 1.59349 1.73653 1.78016 1.54986C1.96682 1.3632 2.20682 1.26986 2.50016 1.26986ZM15.8202 13.3499H2.50016C2.22016 13.3499 1.98349 13.2465 1.79016 13.0399C1.59682 12.8332 1.50016 12.6032 1.50016 12.3499V4.26986L8.00016 8.42986C8.28016 8.65653 8.66682 8.76986 9.16016 8.76986C9.65349 8.76986 10.0402 8.65653 10.3202 8.42986L16.8202 4.26986V12.2699C16.8202 12.5632 16.7268 12.8165 16.5402 13.0299C16.3535 13.2432 16.1135 13.3499 15.8202 13.3499Z" fill="#9CA3AF"/>
</svg>
