<svg width="20" height="22" viewBox="0 0 20 22" fill="none" xmlns="http://www.w3.org/2000/svg">
<path d="M12.9423 9.1018C12.1103 9.63913 11.2089 9.9078 10.2383 9.9078C9.59695 9.9078 8.97728 9.78213 8.37928 9.5308C7.78128 9.27946 7.25261 8.92846 6.79328 8.4778C6.33395 8.02713 5.98295 7.5028 5.74028 6.9048C5.49761 6.3068 5.37628 5.68713 5.37628 5.0458C5.37628 4.04046 5.64928 3.13046 6.19528 2.3158C6.74128 1.50113 7.46061 0.907465 8.35328 0.534798C9.24595 0.162132 10.1949 0.0711308 11.2003 0.261799C12.1363 0.435131 12.9596 0.872797 13.6703 1.5748C14.3809 2.2768 14.8273 3.1088 15.0093 4.0708C15.1913 5.0328 15.1003 5.97313 14.7363 6.8918C14.3723 7.81046 13.7743 8.54713 12.9423 9.1018ZM11.7463 2.7838C11.2956 2.48913 10.7929 2.3418 10.2383 2.3418C9.51028 2.3418 8.86895 2.6018 8.31428 3.1218C7.79428 3.67646 7.53428 4.3178 7.53428 5.0458C7.53428 5.60046 7.68595 6.10313 7.98928 6.5538C8.29261 7.00446 8.69561 7.3338 9.19828 7.5418C9.70095 7.7498 10.2209 7.8018 10.7583 7.6978C11.2956 7.5938 11.7593 7.3468 12.1493 6.9568C12.5393 6.5668 12.7863 6.10313 12.8903 5.5658C12.9943 5.02847 12.9423 4.50846 12.7343 4.0058C12.5263 3.50313 12.1969 3.0958 11.7463 2.7838ZM3.34828 13.8598C4.24961 12.9411 5.29828 12.2348 6.49428 11.7408C7.69028 11.2468 8.93828 10.9998 10.2383 10.9998C11.5383 10.9998 12.7863 11.2468 13.9823 11.7408C15.1783 12.2348 16.2313 12.9368 17.1413 13.8468C18.0513 14.7568 18.7533 15.8098 19.2473 17.0058C19.7413 18.2018 19.9883 19.4498 19.9883 20.7498C19.9883 21.0618 19.8756 21.3218 19.6503 21.5298C19.4249 21.7378 19.1736 21.8418 18.8963 21.8418H13.4883C13.1936 21.8418 12.9379 21.7335 12.7213 21.5168C12.5046 21.3001 12.3963 21.0445 12.3963 20.7498C12.3963 20.4551 12.5046 20.1995 12.7213 19.9828C12.9379 19.7661 13.1936 19.6578 13.4883 19.6578H17.7523C17.6136 18.7565 17.3276 17.9028 16.8943 17.0968C16.4609 16.2908 15.8976 15.5931 15.2043 15.0038C14.5109 14.4145 13.7396 13.9595 12.8903 13.6388C12.0409 13.3181 11.1569 13.1578 10.2383 13.1578C9.31961 13.1578 8.43561 13.3181 7.58628 13.6388C6.73695 13.9595 5.96561 14.4145 5.27228 15.0038C4.57895 15.5931 4.01561 16.2908 3.58228 17.0968C3.14895 17.9028 2.86295 18.7565 2.72428 19.6578H6.98828C7.26561 19.6578 7.52561 19.7618 7.76828 19.9698C7.97628 20.2125 8.08028 20.4725 8.08028 20.7498C8.08028 21.0271 7.97628 21.2871 7.76828 21.5298C7.52561 21.7378 7.26561 21.8418 6.98828 21.8418H1.58028C1.30295 21.8418 1.05161 21.7378 0.826281 21.5298C0.600948 21.3218 0.488281 21.0618 0.488281 20.7498C0.488281 19.4498 0.735281 18.2061 1.22928 17.0188C1.72328 15.8315 2.42961 14.7785 3.34828 13.8598Z" fill="#030712"/>
</svg>
