<svg width="24" height="21" viewBox="0 0 24 21" fill="none" xmlns="http://www.w3.org/2000/svg">
<path d="M6.66016 2.4078C5.88016 2.4078 5.15649 2.6028 4.48916 2.9928C3.82182 3.3828 3.29316 3.91146 2.90316 4.5788C2.51316 5.24613 2.31816 5.9698 2.31816 6.7498C2.31816 8.53513 2.82949 10.2338 3.85216 11.8458C4.68416 13.1978 5.84549 14.4631 7.33616 15.6418C8.67082 16.7338 10.2048 17.6958 11.9382 18.5278L12.0682 18.5798C13.8535 17.7305 15.4482 16.7425 16.8522 15.6158L16.8002 15.6418C18.2908 14.4631 19.4522 13.1978 20.2842 11.8458C21.3068 10.2338 21.8182 8.53513 21.8182 6.7498C21.8182 5.9698 21.6232 5.24613 21.2332 4.5788C20.8432 3.91146 20.3145 3.3828 19.6472 2.9928C18.9798 2.6028 18.2562 2.4078 17.4762 2.4078C16.7828 2.4078 16.1285 2.55946 15.5132 2.8628C14.8978 3.16613 14.3778 3.58213 13.9532 4.1108C13.5285 4.63946 13.2555 5.23313 13.1342 5.8918C13.0822 6.13446 12.9565 6.33813 12.7572 6.5028C12.5578 6.66746 12.3282 6.7498 12.0682 6.7498C11.8082 6.7498 11.5785 6.66746 11.3792 6.5028C11.1798 6.33813 11.0542 6.13446 11.0022 5.8918C10.8808 5.23313 10.6078 4.63946 10.1832 4.1108C9.75849 3.58213 9.23849 3.16613 8.62316 2.8628C8.00782 2.55946 7.35349 2.4078 6.66016 2.4078ZM12.0682 20.8418C11.9122 20.8245 11.7562 20.7898 11.6002 20.7378C11.5135 20.7031 11.3662 20.6338 11.1582 20.5298C9.25149 19.6285 7.50949 18.5451 5.93216 17.2798L5.98416 17.3318C4.30282 16.0145 2.97682 14.5758 2.00616 13.0158C0.77549 11.0398 0.160156 8.95113 0.160156 6.7498C0.160156 5.57113 0.45049 4.48346 1.03116 3.4868C1.61182 2.49013 2.40049 1.70146 3.39716 1.1208C4.39382 0.540131 5.48149 0.249796 6.66016 0.249796C7.75216 0.249796 8.77049 0.496796 9.71516 0.990797C10.6598 1.4848 11.4442 2.15646 12.0682 3.0058V3.0318C12.6922 2.16513 13.4765 1.4848 14.4212 0.990797C15.3658 0.496796 16.3842 0.249796 17.4762 0.249796C18.6548 0.249796 19.7425 0.540131 20.7392 1.1208C21.7358 1.70146 22.5245 2.49013 23.1052 3.4868C23.6858 4.48346 23.9762 5.57113 23.9762 6.7498C23.9762 8.95113 23.3608 11.0398 22.1302 13.0158C21.1595 14.5758 19.8335 16.0145 18.1522 17.3318C16.6095 18.5451 14.9368 19.5938 13.1342 20.4778L12.9782 20.5298C12.5622 20.7378 12.2588 20.8418 12.0682 20.8418Z" fill="#030712"/>
</svg>
